<svg width="177" height="23" viewBox="0 0 177 23" fill="none" xmlns="http://www.w3.org/2000/svg">
<path d="M0.793747 22V0.90625H9.59453V3.83594H5.05937V9.57812H8.27031V12.5781H5.05937V22H0.793747ZM15.7047 14.8633H17.8844L16.818 7.03516L15.7047 14.8633ZM10.3609 22L14.9195 0.90625H18.693L23.2398 22H19.0328L18.1656 17.4883H15.4117L14.5914 22H10.3609ZM25.0844 15.9648L29.4086 15.1328C29.4086 15.5625 29.4164 15.9414 29.432 16.2695C29.4477 16.5977 29.4867 16.957 29.5492 17.3477C29.6195 17.7305 29.7094 18.0469 29.8187 18.2969C29.9359 18.5391 30.0961 18.7461 30.2992 18.918C30.5102 19.082 30.7562 19.1641 31.0375 19.1641C31.8812 19.1641 32.3031 18.625 32.3031 17.5469C32.3031 16.0703 31.4711 14.6016 29.807 13.1406L28.4828 12.0156C28.0609 11.6641 27.725 11.3711 27.475 11.1367C27.225 10.9023 26.9281 10.5859 26.5844 10.1875C26.2484 9.78906 25.9828 9.40625 25.7875 9.03906C25.6 8.66406 25.4359 8.21484 25.2953 7.69141C25.1625 7.16797 25.0961 6.61328 25.0961 6.02734C25.0961 4.31641 25.6391 2.96484 26.725 1.97266C27.8109 0.972656 29.2523 0.472656 31.0492 0.472656C32.5414 0.472656 33.8109 1.00391 34.8578 2.06641C35.9047 3.12891 36.4281 4.41016 36.4281 5.91016L36.4164 6.0625C36.4164 6.16406 36.4164 6.28125 36.4164 6.41406L32.0102 7.02344C32.0102 6.9375 32.0141 6.80469 32.0219 6.625C32.0375 6.4375 32.0453 6.28516 32.0453 6.16797C32.0453 5.88672 32.0258 5.61719 31.9867 5.35938C31.9477 5.10156 31.8812 4.84375 31.7875 4.58594C31.7016 4.32812 31.5648 4.125 31.3773 3.97656C31.1898 3.82031 30.9633 3.74219 30.6977 3.74219C30.2289 3.74219 29.8773 3.92578 29.643 4.29297C29.4086 4.66016 29.2914 5.09375 29.2914 5.59375C29.2914 6.03125 29.3578 6.44141 29.4906 6.82422C29.6312 7.20703 29.8383 7.56641 30.1117 7.90234C30.393 8.23047 30.6508 8.50391 30.8852 8.72266C31.1195 8.94141 31.432 9.21094 31.8227 9.53125C32.2133 9.84375 32.4906 10.0742 32.6547 10.2227C33.2562 10.7539 33.7641 11.2539 34.1781 11.7227C34.5922 12.1836 34.9828 12.707 35.35 13.293C35.7172 13.8789 35.9906 14.5117 36.1703 15.1914C36.3578 15.8711 36.4516 16.6055 36.4516 17.3945C36.4516 18.8711 35.9242 20.082 34.8695 21.0273C33.8148 21.9648 32.5336 22.4336 31.0258 22.4336C30.0492 22.4336 29.182 22.2539 28.4242 21.8945C27.6664 21.5352 27.0531 21.0469 26.5844 20.4297C26.1234 19.8125 25.768 19.1289 25.518 18.3789C25.268 17.6289 25.1234 16.8242 25.0844 15.9648ZM39.093 14.957V7.97266C39.093 2.98828 41.132 0.496094 45.2102 0.496094C46.0695 0.496094 46.8312 0.613281 47.4953 0.847656C48.1672 1.07422 48.7297 1.39062 49.1828 1.79688C49.6359 2.20312 50.007 2.70312 50.2961 3.29688C50.593 3.89062 50.8039 4.53516 50.9289 5.23047C51.0617 5.92578 51.1281 6.69141 51.1281 7.52734V9.34375H46.9328V7.39844C46.9328 7.01562 46.925 6.6875 46.9094 6.41406C46.8937 6.13281 46.8508 5.81641 46.7805 5.46484C46.718 5.10547 46.6281 4.81641 46.5109 4.59766C46.4016 4.37109 46.2336 4.17969 46.007 4.02344C45.7883 3.86719 45.5227 3.78906 45.2102 3.78906C43.9758 3.78906 43.3586 4.82812 43.3586 6.90625V16.0117C43.3586 18.082 43.9758 19.1172 45.2102 19.1172C45.5773 19.1172 45.8859 19.0117 46.1359 18.8008C46.3859 18.5898 46.5656 18.293 46.675 17.9102C46.7844 17.5195 46.8586 17.1406 46.8977 16.7734C46.9367 16.3984 46.9562 15.9727 46.9562 15.4961V13.3281H51.1281V15.1094C51.1125 15.9141 51.0461 16.6562 50.9289 17.3359C50.8117 18.0156 50.6125 18.6758 50.3312 19.3164C50.05 19.957 49.6906 20.5 49.2531 20.9453C48.8234 21.3828 48.2648 21.7344 47.5773 22C46.8898 22.2734 46.1008 22.4102 45.2102 22.4102C44.2961 22.4102 43.4836 22.2773 42.7727 22.0117C42.0695 21.7539 41.4875 21.4062 41.0266 20.9688C40.5734 20.5234 40.1984 19.9805 39.9016 19.3398C39.6047 18.6914 39.3937 18.0117 39.2687 17.3008C39.1516 16.5898 39.093 15.8086 39.093 14.957ZM54.3203 22V0.90625H58.5859V22H54.3203ZM61.5672 15.9648L65.8914 15.1328C65.8914 15.5625 65.8992 15.9414 65.9148 16.2695C65.9305 16.5977 65.9695 16.957 66.032 17.3477C66.1023 17.7305 66.1922 18.0469 66.3016 18.2969C66.4187 18.5391 66.5789 18.7461 66.782 18.918C66.993 19.082 67.2391 19.1641 67.5203 19.1641C68.3641 19.1641 68.7859 18.625 68.7859 17.5469C68.7859 16.0703 67.9539 14.6016 66.2898 13.1406L64.9656 12.0156C64.5437 11.6641 64.2078 11.3711 63.9578 11.1367C63.7078 10.9023 63.4109 10.5859 63.0672 10.1875C62.7312 9.78906 62.4656 9.40625 62.2703 9.03906C62.0828 8.66406 61.9187 8.21484 61.7781 7.69141C61.6453 7.16797 61.5789 6.61328 61.5789 6.02734C61.5789 4.31641 62.1219 2.96484 63.2078 1.97266C64.2937 0.972656 65.7352 0.472656 67.532 0.472656C69.0242 0.472656 70.2937 1.00391 71.3406 2.06641C72.3875 3.12891 72.9109 4.41016 72.9109 5.91016L72.8992 6.0625C72.8992 6.16406 72.8992 6.28125 72.8992 6.41406L68.493 7.02344C68.493 6.9375 68.4969 6.80469 68.5047 6.625C68.5203 6.4375 68.5281 6.28516 68.5281 6.16797C68.5281 5.88672 68.5086 5.61719 68.4695 5.35938C68.4305 5.10156 68.3641 4.84375 68.2703 4.58594C68.1844 4.32812 68.0477 4.125 67.8602 3.97656C67.6727 3.82031 67.4461 3.74219 67.1805 3.74219C66.7117 3.74219 66.3602 3.92578 66.1258 4.29297C65.8914 4.66016 65.7742 5.09375 65.7742 5.59375C65.7742 6.03125 65.8406 6.44141 65.9734 6.82422C66.1141 7.20703 66.3211 7.56641 66.5945 7.90234C66.8758 8.23047 67.1336 8.50391 67.368 8.72266C67.6023 8.94141 67.9148 9.21094 68.3055 9.53125C68.6961 9.84375 68.9734 10.0742 69.1375 10.2227C69.7391 10.7539 70.2469 11.2539 70.6609 11.7227C71.075 12.1836 71.4656 12.707 71.8328 13.293C72.2 13.8789 72.4734 14.5117 72.6531 15.1914C72.8406 15.8711 72.9344 16.6055 72.9344 17.3945C72.9344 18.8711 72.407 20.082 71.3523 21.0273C70.2977 21.9648 69.0164 22.4336 67.5086 22.4336C66.532 22.4336 65.6648 22.2539 64.907 21.8945C64.1492 21.5352 63.5359 21.0469 63.0672 20.4297C62.6062 19.8125 62.2508 19.1289 62.0008 18.3789C61.7508 17.6289 61.6062 16.8242 61.5672 15.9648ZM77.8492 22V4.09375H74.7555V0.90625H85.15V4.09375H82.1148V22H77.8492Z" fill="#D22628"/>
<path d="M97.9797 14.8633H100.159L99.093 7.03516L97.9797 14.8633ZM92.6359 22L97.1945 0.90625H100.968L105.515 22H101.308L100.441 17.4883H97.6867L96.8664 22H92.6359ZM107.676 15.4023V7.97266C107.676 2.98828 109.75 0.496094 113.898 0.496094C114.773 0.496094 115.551 0.613281 116.23 0.847656C116.918 1.07422 117.492 1.39062 117.953 1.79688C118.414 2.20312 118.793 2.70312 119.09 3.29688C119.387 3.89062 119.602 4.53516 119.734 5.23047C119.867 5.92578 119.934 6.69141 119.934 7.52734V8.76953H115.855V7.29297C115.855 6.92578 115.844 6.60547 115.82 6.33203C115.805 6.05078 115.758 5.74219 115.68 5.40625C115.602 5.0625 115.496 4.78125 115.363 4.5625C115.23 4.34375 115.039 4.16016 114.789 4.01172C114.539 3.86328 114.242 3.78906 113.898 3.78906C112.594 3.78906 111.941 4.82812 111.941 6.90625V16.0117C111.941 18.082 112.594 19.1172 113.898 19.1172C115.195 19.1172 115.844 18.043 115.844 15.8945V14.207H113.43V11.1484H120.109V22H117.18L116.641 20.5234C116.281 21.0859 115.77 21.543 115.105 21.8945C114.441 22.2383 113.758 22.4102 113.055 22.4102C112.297 22.4102 111.605 22.2734 110.98 22C110.363 21.7188 109.852 21.3516 109.445 20.8984C109.047 20.4375 108.711 19.8984 108.438 19.2812C108.164 18.6641 107.969 18.0352 107.852 17.3945C107.734 16.7461 107.676 16.082 107.676 15.4023ZM123.653 22V0.90625H132.454V3.83594H127.919V9.57812H131.13V12.5781H127.919V19.0703H132.454V22H123.653ZM135.189 22V0.894531H138.259L142.888 11.9336V0.894531H146.427V22H143.474L138.857 10.293V22H135.189ZM150.147 22V0.90625H154.553C155.959 0.90625 157.116 1.03516 158.022 1.29297C158.936 1.54297 159.651 1.96094 160.166 2.54688C160.69 3.125 161.049 3.82031 161.245 4.63281C161.448 5.44531 161.549 6.48047 161.549 7.73828V14.6523C161.549 15.4023 161.526 16.0586 161.479 16.6211C161.432 17.1758 161.342 17.7227 161.209 18.2617C161.084 18.793 160.909 19.2461 160.682 19.6211C160.463 19.9883 160.178 20.332 159.827 20.6523C159.475 20.9727 159.049 21.2266 158.549 21.4141C158.057 21.6016 157.475 21.7461 156.803 21.8477C156.139 21.9492 155.373 22 154.506 22H150.147ZM154.577 19.0117C154.983 19.0117 155.303 19.0078 155.537 19C155.772 18.9844 156.006 18.9531 156.241 18.9062C156.475 18.8594 156.647 18.7969 156.756 18.7188C156.866 18.6328 156.967 18.5117 157.061 18.3555C157.155 18.1992 157.213 18.0156 157.237 17.8047C157.268 17.5859 157.284 17.3164 157.284 16.9961V5.64062C157.284 4.94531 157.077 4.48438 156.662 4.25781C156.248 4.03125 155.553 3.91406 154.577 3.90625V19.0117ZM168.808 14.8633H170.988L169.921 7.03516L168.808 14.8633ZM163.464 22L168.023 0.90625H171.796L176.343 22H172.136L171.269 17.4883H168.515L167.695 22H163.464Z" fill="white"/>
</svg>
