<svg width="26" height="18" viewBox="0 0 26 18" fill="none" xmlns="http://www.w3.org/2000/svg">
<path d="M26 5.64468C26 4.14761 25.3988 2.71187 24.3287 1.65329C23.2586 0.594706 21.8072 0 20.2938 0H5.70623C4.19284 0 2.74145 0.594706 1.67132 1.65329C0.601184 2.71187 0 4.14761 0 5.64468V12.3625C-6.03126e-07 13.1034 0.147637 13.8371 0.434493 14.5215C0.721348 15.206 1.14179 15.8278 1.67176 16.3513C2.20173 16.8749 2.83081 17.29 3.52309 17.5729C4.21536 17.8558 4.95722 18.0009 5.70623 18H20.2938C21.0428 18.0009 21.7846 17.8558 22.4769 17.5729C23.1692 17.29 23.7983 16.8749 24.3282 16.3513C24.8582 15.8278 25.2787 15.206 25.5655 14.5215C25.8524 13.8371 26 13.1034 26 12.3625V5.64468ZM17.4225 9.50795L10.9135 12.7059C10.6531 12.8418 9.78525 12.663 9.78525 12.3696V5.80207C9.78525 5.50875 10.6604 5.32274 10.9207 5.46582L17.1839 8.83545C17.4081 8.98569 17.6829 9.36486 17.4225 9.50795Z" fill="white"/>
</svg>
