<svg xmlns="http://www.w3.org/2000/svg" viewBox="0 0 70.16 79.28"><defs><style>.cls-1{fill:#ee1d52;}.cls-2{fill:#fff;}.cls-3{fill:#69c9d0;}</style></defs><g id="Capa_2" data-name="Capa 2"><g id="OBJECTS"><path class="cls-1" d="M2.71,67.86l.26.73C2.93,68.51,2.84,68.25,2.71,67.86ZM13,51.22c.46-3.95,2-6.16,4.93-8.42,4.19-3.07,9.41-1.34,9.41-1.34V31.17a21.94,21.94,0,0,1,3.79.24V44.65S25.92,42.92,21.73,46c-2.92,2.27-4.47,4.48-4.93,8.43a12.09,12.09,0,0,0,2.14,7.36c-.45-.24-.89-.51-1.35-.81A11.27,11.27,0,0,1,13,51.22ZM52.73,12.13a18.19,18.19,0,0,1-4.37-8.94H52s-.71,6.12,4.54,12.13l.08.08a19.91,19.91,0,0,1-3.87-3.27Zm17.43,9.33v13a44.94,44.94,0,0,1-8-1.1,30.48,30.48,0,0,1-7.84-3.22L52,28.63V55.44a27.06,27.06,0,0,1-1.59,8.32A25.25,25.25,0,0,1,46,71.05a25,25,0,0,1-8.09,6,23.9,23.9,0,0,1-10,2.19,24.71,24.71,0,0,1-13.42-4A26.32,26.32,0,0,1,10.69,72l0,0a24.55,24.55,0,0,0,13.42,4,23.87,23.87,0,0,0,10-2.19A24.33,24.33,0,0,0,46.6,60.58a27.17,27.17,0,0,0,1.59-8.33V25.46c.17.09,2.28,1.49,2.28,1.49a30.48,30.48,0,0,0,7.84,3.22,45.51,45.51,0,0,0,8,1.09V21.1A12.29,12.29,0,0,0,70.16,21.46Z"/><path class="cls-2" d="M66.35,21.08V31.25a44.94,44.94,0,0,1-8-1.1,30.48,30.48,0,0,1-7.84-3.22l-2.28-1.49V52.25a27.17,27.17,0,0,1-1.59,8.33A24.33,24.33,0,0,1,34.1,73.9a23.87,23.87,0,0,1-10,2.19,24.65,24.65,0,0,1-13.42-4l0,0A25.58,25.58,0,0,1,8.8,69.9a25.92,25.92,0,0,1-3.58-6.5v0a25.85,25.85,0,0,1-1.41-8.66,23.68,23.68,0,0,1,2.9-11,26,26,0,0,1,5.63-6.89,23.6,23.6,0,0,1,6.69-4,22.46,22.46,0,0,1,8.32-1.75v10.3s-5.22-1.73-9.41,1.33C15,45.05,13.47,47.25,13,51.2A11.29,11.29,0,0,0,17.61,61c.46.3.9.57,1.35.81a10.49,10.49,0,0,0,2.45,2.39c3.83,2.52,7,2.7,11.11,1.06a10.38,10.38,0,0,0,5.72-6.29,15.07,15.07,0,0,0,.59-5.21V3.19h9.52a18,18,0,0,0,4.36,8.94,21.16,21.16,0,0,0,3.87,3.27,20,20,0,0,0,5.31,4.06,19.68,19.68,0,0,0,4.46,1.62Z"/><path class="cls-3" d="M1.43,60.26l.24.68A5.81,5.81,0,0,1,1.43,60.26Z"/><path class="cls-3" d="M19,32.91a23.59,23.59,0,0,0-6.69,4,25.65,25.65,0,0,0-5.63,6.9,23.64,23.64,0,0,0-2.9,11,26.37,26.37,0,0,0,1.41,8.66h0A26.27,26.27,0,0,0,8.8,69.94c.59.74,1.22,1.45,1.89,2.14A26.67,26.67,0,0,1,5,66.75a25.25,25.25,0,0,1-3.57-6.47v0A25.61,25.61,0,0,1,0,51.57a23.74,23.74,0,0,1,2.9-11,25.65,25.65,0,0,1,5.63-6.9,23.6,23.6,0,0,1,6.69-4A23.14,23.14,0,0,1,20,28.33a23.48,23.48,0,0,1,7.39-.11v3A22.46,22.46,0,0,0,19,32.91Z"/><path class="cls-3" d="M48.36,3.19H38.85V53.72a15.56,15.56,0,0,1-.59,5.21,10.51,10.51,0,0,1-5.73,6.29c-4.09,1.65-7.29,1.46-11.1-1.06A10.3,10.3,0,0,1,19,61.78c3.25,1.73,6.16,1.7,9.76.26a10.48,10.48,0,0,0,5.72-6.3,15.25,15.25,0,0,0,.59-5.2V0H48.19A11,11,0,0,0,48.36,3.19Zm18,15.08v2.81a19.68,19.68,0,0,1-4.46-1.62,20.25,20.25,0,0,1-5.31-4.06,16,16,0,0,0,1.51.87A17,17,0,0,0,66.35,18.27Z"/></g></g></svg>