<svg width="26" height="28" viewBox="0 0 26 28" fill="none" xmlns="http://www.w3.org/2000/svg">
<path d="M19.7838 5.75087C19.486 5.74937 19.1944 5.84065 18.9461 6.01315C18.6978 6.18564 18.5039 6.4316 18.3889 6.71983C18.2739 7.00807 18.2431 7.32563 18.3003 7.63226C18.3575 7.9389 18.5002 8.22081 18.7103 8.44228C18.9204 8.66375 19.1884 8.81482 19.4804 8.87633C19.7724 8.93784 20.0753 8.90703 20.3506 8.78781C20.6259 8.66859 20.8613 8.46631 21.0269 8.20662C21.1925 7.94693 21.2809 7.64151 21.2809 7.32905C21.2819 7.12216 21.2438 6.91711 21.169 6.72568C21.0942 6.53425 20.9841 6.36021 20.845 6.21356C20.7059 6.06692 20.5405 5.95055 20.3584 5.87115C20.1763 5.79175 19.981 5.75087 19.7838 5.75087V5.75087Z" fill="white"/>
<path d="M13.1085 7.77686C11.8606 7.77536 10.6403 8.16231 9.60207 8.88873C8.56386 9.61515 7.75439 10.6484 7.27617 11.8577C6.79795 13.0669 6.67246 14.3978 6.91557 15.682C7.15868 16.9661 7.75947 18.1457 8.64189 19.0714C9.52431 19.9972 10.6487 20.6275 11.8727 20.8825C13.0967 21.1375 14.3654 21.0059 15.518 20.5042C16.6707 20.0025 17.6556 19.1533 18.348 18.0641C19.0404 16.9749 19.4092 15.6947 19.4078 14.3855C19.404 12.634 18.7391 10.9554 17.5585 9.7169C16.378 8.47841 14.778 7.78087 13.1085 7.77686ZM13.1085 18.6268C12.3086 18.6283 11.5262 18.3808 10.8604 17.9157C10.1946 17.4506 9.67535 16.7887 9.36825 16.0138C9.06115 15.239 8.98004 14.3859 9.13522 13.5627C9.2904 12.7395 9.67486 11.983 10.24 11.3891C10.8051 10.7952 11.5255 10.3905 12.3099 10.2262C13.0943 10.0619 13.9076 10.1455 14.6467 10.4663C15.3859 10.7871 16.0177 11.3307 16.4623 12.0283C16.9068 12.726 17.1441 13.5463 17.1441 14.3855C17.1469 14.9437 17.0447 15.4971 16.8433 16.0138C16.6419 16.5305 16.3452 17.0004 15.9703 17.3966C15.5953 17.7928 15.1495 18.1074 14.6584 18.3224C14.1673 18.5374 13.6406 18.6486 13.1085 18.6496V18.6268Z" fill="white"/>
<path d="M18.1132 27.815H7.89396C5.85559 27.813 3.90126 26.9626 2.45991 25.4505C1.01857 23.9384 0.20797 21.8881 0.206055 19.7496V9.02865C0.20797 6.89019 1.01857 4.83989 2.45991 3.32777C3.90126 1.81565 5.85559 0.965266 7.89396 0.963257H18.1132C20.1503 0.967273 22.1027 1.81855 23.5425 3.33045C24.9823 4.84235 25.7919 6.89151 25.7938 9.02865V19.7496C25.7919 21.8868 24.9823 23.9359 23.5425 25.4478C22.1027 26.9597 20.1503 27.811 18.1132 27.815V27.815ZM7.89396 3.47468C6.49432 3.47669 5.15257 4.06088 4.16288 5.09917C3.17318 6.13746 2.61633 7.54511 2.61441 9.01348V19.7344C2.61633 21.2028 3.17318 22.6105 4.16288 23.6488C5.15257 24.687 6.49432 25.2712 7.89396 25.2732H18.1132C19.5122 25.2692 20.8529 24.6844 21.8422 23.6465C22.8314 22.6087 23.3889 21.2022 23.3927 19.7344V9.02865C23.3889 7.56091 22.8314 6.15442 21.8422 5.11656C20.8529 4.0787 19.5122 3.49386 18.1132 3.48986L7.89396 3.47468Z" fill="white"/>
</svg>
