<svg width="129" height="57" viewBox="0 0 129 57" fill="none" xmlns="http://www.w3.org/2000/svg">
<path d="M25.5251 20V1.976H21.8531V0.559999H30.9251V1.976H27.3491V20H25.5251ZM34.3106 20V0.559999H36.1346V20H34.3106ZM40.6149 20L41.0949 0.559999H42.9189L46.7589 17.432L50.6709 0.559999H52.4949L52.9749 20H51.4629L51.0789 4.52L47.3589 20H46.1829L42.5109 4.544L42.1269 20H40.6149ZM57.3808 20V0.559999H64.4128V1.976H59.2288V9.272H63.4528V10.616H59.2288V18.632H64.4608V20H57.3808ZM68.1673 20V0.559999H69.9913V18.632H75.5113V20H68.1673ZM78.5793 20V0.559999H80.4033V20H78.5793ZM85.0517 20V0.559999H86.3717L92.5637 15.656V0.559999H94.1477V20H92.8517L86.6357 4.736V20H85.0517ZM98.6964 20V0.559999H105.728V1.976H100.544V9.272H104.768V10.616H100.544V18.632H105.776V20H98.6964ZM0.709373 49.0625V41.9727C0.709373 36.9883 2.76406 34.4961 6.87344 34.4961C10.9906 34.4961 13.0492 36.9883 13.0492 41.9727V48.957C13.0492 49.8008 12.9867 50.582 12.8617 51.3008C12.7367 52.0117 12.5219 52.6875 12.2172 53.3281C11.9203 53.9688 11.5375 54.5156 11.0687 54.9688C10.6078 55.4141 10.0219 55.7656 9.31094 56.0234C8.6 56.2812 7.7875 56.4102 6.87344 56.4102C5.96719 56.4102 5.15859 56.2812 4.44765 56.0234C3.73672 55.7734 3.15078 55.4336 2.68984 55.0039C2.2289 54.5664 1.84609 54.0352 1.5414 53.4102C1.24453 52.7773 1.02969 52.1055 0.896873 51.3945C0.771873 50.6836 0.709373 49.9062 0.709373 49.0625ZM8.78359 50.0234V40.9062C8.78359 38.8281 8.14687 37.7891 6.87344 37.7891C6.49062 37.7891 6.1664 37.8867 5.90078 38.082C5.63515 38.2695 5.43984 38.5312 5.31484 38.8672C5.18984 39.1953 5.1 39.5234 5.04531 39.8516C4.99844 40.1719 4.975 40.5234 4.975 40.9062V50.0234C4.975 52.0938 5.60781 53.1289 6.87344 53.1289C8.14687 53.1289 8.78359 52.0938 8.78359 50.0234ZM16.4992 56V34.9062H25.3V37.8359H20.7648V43.5781H23.9758V46.5781H20.7648V56H16.4992Z" fill="white"/>
<path d="M35.7391 56V38.0938H32.6453V34.9062H43.0398V38.0938H40.0047V56H35.7391ZM48.3648 56V49.0273L44.4039 34.9062H48.4234L50.3922 44.1758C50.6344 43.1602 50.9977 41.6172 51.482 39.5469C51.9664 37.4688 52.3258 35.9219 52.5602 34.9062H56.4625L52.4898 49.0273V56H48.3648ZM63.182 43.6836H64.4008C64.7289 43.6836 65.0102 43.5742 65.2445 43.3555C65.4789 43.1367 65.6469 42.8594 65.7484 42.5234C65.8578 42.1875 65.932 41.8789 65.9711 41.5977C66.018 41.3164 66.0414 41.0508 66.0414 40.8008C66.0414 40.5508 66.0219 40.293 65.9828 40.0273C65.9516 39.7617 65.8891 39.4688 65.7953 39.1484C65.7094 38.8203 65.5609 38.5547 65.35 38.3516C65.1469 38.1406 64.8969 38.0352 64.6 38.0352H63.182V43.6836ZM58.9164 56V34.9062H63.557C64.6117 34.9062 65.5375 35.0078 66.3344 35.2109C67.1391 35.4062 67.8422 35.7188 68.4437 36.1484C69.0453 36.5703 69.5023 37.1445 69.8148 37.8711C70.1273 38.5898 70.2836 39.4531 70.2836 40.4609C70.2836 40.8984 70.268 41.2891 70.2367 41.6328C70.2055 41.9766 70.1312 42.3711 70.0141 42.8164C69.9047 43.2539 69.7523 43.6445 69.557 43.9883C69.3617 44.3242 69.0805 44.6562 68.7133 44.9844C68.3461 45.3125 67.9125 45.5859 67.4125 45.8047C68.6781 49.8203 69.7797 53.2188 70.7172 56H66.2992L63.8852 46.2852H63.182V56H58.9164ZM77.4602 48.8633H79.6398L78.5734 41.0352L77.4602 48.8633ZM72.1164 56L76.675 34.9062H80.4484L84.9953 56H80.7883L79.9211 51.4883H77.1672L76.3469 56H72.1164ZM87.5664 56V34.8945H90.6367L95.2656 45.9336V34.8945H98.8047V56H95.8516L91.2344 44.293V56H87.5664ZM102.524 56V34.8945H105.595L110.223 45.9336V34.8945H113.762V56H110.809L106.192 44.293V56H102.524ZM120.177 56V49.0273L116.216 34.9062H120.236L122.205 44.1758C122.447 43.1602 122.81 41.6172 123.295 39.5469C123.779 37.4688 124.138 35.9219 124.373 34.9062H128.275L124.302 49.0273V56H120.177Z" fill="#D22628"/>
</svg>
